P2
12 10
255
   0   0   0   0   0   0   0   0   0   0   0   0
   0   0   0   0   0   0   0   0   0   0   0   0
 192 192 192 192 192 192 192 192 192 192 192 192
 192 192 192 192 192 192 192 192 192 192 192 192
 192 192 192 255 255 255 128 128 128 128 128 128
 192 192 192 255 255 255 128 128 128 128 128 128
 192 192 192 255 255 255  64  64  64  64  64  64
 192 192 192 255 255 255  64  64  64  64  64  64
 192 192 192   0   0   0   0   0   0   0   0   0
 192 192 192   0   0   0   0   0   0   0   0   0
