P2
4 5
255
   0   0   0   0
   0 255 255   0
   0 128 128   0
 255 255 255 255
   0  64  64   0