P2
4 5
255
  72  60  48  60
 144 148 136 132
 188 200 156 144
 160 160  96  96
  92  72  28  48
