P2
3 3
255
 101 102 103
 104 105 106
 107 108 109
